<svg xmlns="http://www.w3.org/2000/svg" xmlns:xlink="http://www.w3.org/1999/xlink" xml:space="preserve" version="1.1" style="shape-rendering:geometricPrecision;text-rendering:geometricPrecision;image-rendering:optimizeQuality;" viewBox="0 0 282.56 353.2" x="0px" y="0px" fill-rule="evenodd" clip-rule="evenodd"><defs><style type="text/css">
   
    .fil0 {fill:#4d4d4d;fill-rule:nonzero}
   
  </style></defs><g><path class="fil0" d="M34.87 34.87c46.49,-46.49 121.83,-46.49 168.33,0 42.26,42.26 46.1,108.37 11.52,154.98l62.69 62.68c6.86,6.87 6.86,18.01 0,24.88 -6.86,6.86 -18.01,6.86 -24.87,0l-62.69 -62.69c-46.6,34.58 -112.71,30.74 -154.98,-11.52 -46.49,-46.49 -46.49,-121.83 0,-168.33zm22.59 22.59c-34,33.99 -34,89.14 0,123.14 33.99,33.99 89.14,33.99 123.14,0 34,-34 34,-89.15 0,-123.14 -34,-34 -89.15,-34 -123.14,0z"/></g><text x="0" y="297.56" fill="#4d4d4d" font-size="5px" font-weight="bold" font-family="'Helvetica Neue', Helvetica, Arial-Unicode, Arial, Sans-serif">Created by Frenggo</text><text x="0" y="302.56" fill="#4d4d4d" font-size="5px" font-weight="bold" font-family="'Helvetica Neue', Helvetica, Arial-Unicode, Arial, Sans-serif">from the Noun Project</text></svg>