<svg width="30" height="30" viewBox="0 0 30 30" fill="none" xmlns="http://www.w3.org/2000/svg">
<path d="M27.6153 11.6767H26.9551C26.7499 11.6767 26.5576 11.542 26.4999 11.3431C26.2948 10.7079 26.0384 10.0728 25.7243 9.47609C25.6281 9.29003 25.6602 9.06548 25.814 8.91792L26.2756 8.45599C26.7243 8.00688 26.9679 7.41663 26.9679 6.78148C26.9679 6.14632 26.7179 5.54965 26.2756 5.10697L24.9038 3.734C24.4551 3.2849 23.8589 3.0411 23.2243 3.0411C22.5961 3.0411 21.9999 3.29131 21.5576 3.734L21.0961 4.19593C20.9487 4.3435 20.7243 4.37557 20.5384 4.28575C19.9422 3.97138 19.314 3.71475 18.673 3.50945C18.4743 3.44529 18.3397 3.25924 18.3397 3.05393V2.3867C18.3397 1.07788 17.282 0.0192871 15.9743 0.0192871H14.0384C12.7307 0.0192871 11.673 1.07788 11.673 2.3867V3.04752C11.673 3.25282 11.5384 3.44529 11.3397 3.50303C10.7051 3.70834 10.0704 3.96497 9.47429 4.27934C9.28839 4.37557 9.06404 4.3435 8.9166 4.18952L8.45506 3.72758C8.00634 3.27848 7.4166 3.03468 6.78199 3.03468C6.14737 3.03468 5.55122 3.2849 5.10891 3.72758L3.71788 5.10055C3.26916 5.54965 3.02558 6.14632 3.02558 6.78148C3.02558 7.41022 3.27558 8.00688 3.71788 8.44957L4.17942 8.9115C4.32686 9.05906 4.35891 9.28362 4.26916 9.46967C3.95506 10.0663 3.69865 10.6951 3.49352 11.3367C3.42942 11.5355 3.24352 11.6703 3.0384 11.6703H2.38455C1.75634 11.6703 1.16019 11.9205 0.711473 12.3632C0.262755 12.8123 0.019165 13.4089 0.019165 14.0377V15.9752C0.019165 17.284 1.07686 18.3426 2.38455 18.3426H3.04481C3.24993 18.3426 3.44224 18.4774 3.49993 18.6763C3.70506 19.3114 3.96147 19.9466 4.27557 20.5432C4.37173 20.7293 4.33968 20.9538 4.18583 21.1014L3.72429 21.5633C3.27558 22.0124 3.03199 22.6027 3.03199 23.2314C3.03199 23.8666 3.28199 24.4633 3.72429 24.9059L5.09609 26.2789C5.54481 26.728 6.14096 26.9718 6.77557 26.9718C7.40378 26.9718 7.99993 26.7216 8.44224 26.2789L8.90378 25.817C8.99352 25.7272 9.11532 25.6758 9.24352 25.6758C9.32045 25.6758 9.39737 25.6951 9.46788 25.7336C10.064 26.0479 10.6922 26.3046 11.3333 26.5099C11.532 26.574 11.6666 26.7601 11.6666 26.9654V27.6262C11.6666 28.935 12.7243 29.9936 14.032 29.9936H15.9679C17.2756 29.9936 18.3333 28.935 18.3333 27.6262V26.9654C18.3333 26.7601 18.4679 26.5676 18.6666 26.5099C19.3012 26.3046 19.9358 26.0479 20.532 25.7336C20.7179 25.6373 20.9422 25.6694 21.0897 25.8234L21.5512 26.2853C21.9999 26.7344 22.5897 26.9782 23.2243 26.9782C23.8589 26.9782 24.4551 26.728 24.8974 26.2853L26.2692 24.9124C26.7179 24.4633 26.9615 23.8666 26.9615 23.2314C26.9615 22.6027 26.7115 22.006 26.2692 21.5633L25.8076 21.1014C25.6602 20.9538 25.6281 20.7293 25.7179 20.5432C26.032 19.9466 26.2884 19.3178 26.4935 18.6763C26.5576 18.4774 26.7435 18.3426 26.9487 18.3426H27.6089C28.9166 18.3426 29.9743 17.284 29.9743 15.9752V14.0377C29.9871 12.7353 28.923 11.6767 27.6153 11.6767ZM14.9935 22.1408C11.0704 22.1408 7.87814 18.9457 7.87814 15.0193C7.87814 11.0929 11.0704 7.89782 14.9935 7.89782C18.9166 7.89782 22.1089 11.0929 22.1089 15.0193C22.1089 18.9457 18.9166 22.1408 14.9935 22.1408Z" fill="#4D4D4D"/>
<path d="M13.6411 29.8975H15.4616C15.6411 29.8975 15.8141 29.8846 15.9872 29.8525H13.1218C13.2885 29.8846 13.4616 29.8975 13.6411 29.8975Z" fill="#4D4D4D"/>
<path d="M15.8013 0H13.9807C13.8654 0 13.75 0.00641574 13.641 0.0192472H16.141C16.032 0.00641574 15.9166 0 15.8013 0Z" fill="#4D4D4D"/>
</svg>
