<svg xmlns="http://www.w3.org/2000/svg" data-name="Layer 1" viewBox="0 0 100 125" x="0px" y="0px"><title>Artboard 41 copy 8</title><path d="M83.94,33.27A19.8,19.8,0,0,0,73.08,21.22c-5.86-2.58-11.92-1.85-17.55,2.13A28.44,28.44,0,0,0,50,28.57a28.44,28.44,0,0,0-5.53-5.22c-5.62-4-11.69-4.72-17.55-2.14a19.77,19.77,0,0,0-10.86,12,21.06,21.06,0,0,0,1.67,17c5,8.82,15.07,18.69,30,29.34a4,4,0,0,0,4.65,0c14.86-10.63,24.93-20.5,29.94-29.33A21.06,21.06,0,0,0,83.94,33.27Zm-4,15.62C75.1,57.38,65.29,67,50.75,77.35a1.28,1.28,0,0,1-1.49,0c-14.55-10.41-24.37-20-29.17-28.47a18.35,18.35,0,0,1-1.45-14.77A17.12,17.12,0,0,1,28,23.69a14.53,14.53,0,0,1,5.84-1.28,15.57,15.57,0,0,1,9,3.11,26,26,0,0,1,6,6.05,1.36,1.36,0,0,0,1.13.61h0a1.35,1.35,0,0,0,1.13-.61C51.22,31.44,60,18.4,72,23.7a17.11,17.11,0,0,1,9.38,10.43A18.33,18.33,0,0,1,79.91,48.89Z"/><text x="0" y="115" fill="#000000" font-size="5px" font-weight="bold" font-family="'Helvetica Neue', Helvetica, Arial-Unicode, Arial, Sans-serif">Created by shwepes</text><text x="0" y="120" fill="#000000" font-size="5px" font-weight="bold" font-family="'Helvetica Neue', Helvetica, Arial-Unicode, Arial, Sans-serif">from the Noun Project</text></svg>