<svg width="45" height="44" viewBox="0 0 45 44" fill="none" xmlns="http://www.w3.org/2000/svg">
<path d="M44.2972 22.6616C44.2972 22.6122 44.2478 22.6122 44.2478 22.5628C44.149 22.3651 44.0501 22.2168 43.9513 22.0191C43.9018 21.9697 43.9018 21.9202 43.8524 21.8708C43.7041 21.6731 43.5559 21.4754 43.3582 21.2777C43.111 21.0306 42.8639 20.8329 42.5674 20.6352C42.4685 20.5857 42.3697 20.4869 42.3202 20.4375L13.9995 4.12712L7.17886 0.173101C5.6961 -0.716554 3.86737 -0.716554 2.38461 0.173101C2.18691 0.271951 1.98921 0.420227 1.84093 0.519078C0.654722 1.40873 -0.0372314 2.79264 -0.0372314 4.32482V32.3984C-0.0372314 34.1283 0.852423 35.7099 2.38461 36.5501C3.66966 37.2915 5.103 37.3903 6.43748 36.8961C6.68461 36.7972 6.93173 36.6984 7.17886 36.5501L10.1444 34.8202L10.7869 34.4743V38.6754C10.7869 40.1582 11.4294 41.5421 12.6156 42.4317C13.0605 42.7777 13.5547 43.0742 14.0984 43.2225C14.5927 43.3708 15.1363 43.4697 15.6306 43.4697C15.9766 43.4697 16.3225 43.4202 16.7179 43.3708C16.9651 43.3214 17.1628 43.2225 17.4099 43.1731C17.657 43.0742 17.8547 42.9754 18.0524 42.8765L35.0053 33.0903L42.3202 28.8398C42.4685 28.7409 42.5674 28.6421 42.7156 28.5926C42.7651 28.5432 42.8145 28.5432 42.8639 28.4938C43.0122 28.3949 43.1605 28.2467 43.2593 28.1478C43.3087 28.0984 43.3087 28.0984 43.3582 28.049C43.4076 27.9995 43.5064 27.9007 43.5559 27.8018C43.6053 27.7524 43.6547 27.703 43.7041 27.6041C43.7536 27.5547 43.803 27.5053 43.8524 27.4064C43.9018 27.357 43.9018 27.3076 43.9513 27.2582C44.0501 27.0605 44.149 26.9122 44.2478 26.7145C44.2972 26.6651 44.2972 26.5662 44.3467 26.5168C44.8409 25.2317 44.8409 23.8972 44.2972 22.6616ZM41.3317 25.5283C41.2329 25.6271 41.1835 25.726 41.134 25.7754C41.0352 25.8743 40.8869 25.9731 40.7386 26.072L34.7582 29.5317L16.4708 40.1087C16.372 40.1582 16.3225 40.2076 16.2237 40.2076C16.1248 40.257 16.0754 40.257 15.9766 40.3064C15.7789 40.3559 15.5317 40.3559 15.334 40.3064C15.0375 40.257 14.7904 40.1582 14.5432 39.9605C14.2961 39.7628 13.9007 39.3673 13.9007 38.626V34.9191V32.6455L30.4087 23.1064C32.7812 21.7225 35.5984 21.3765 38.2674 22.0685C38.7122 22.1674 39.1076 22.3156 39.5524 22.5133C39.9478 22.6616 40.3927 22.8593 40.7881 23.1064C40.9363 23.2053 41.0352 23.3041 41.1835 23.403C41.2329 23.4524 41.2823 23.5513 41.3317 23.6007V23.6501C41.3317 23.6501 41.3317 23.6995 41.3812 23.6995C41.4306 23.749 41.4306 23.7984 41.4306 23.8478C41.6283 24.2926 41.6283 24.8363 41.4306 25.3306C41.3812 25.4294 41.3812 25.4788 41.3317 25.5283ZM10.7869 30.2237V30.8662L9.35357 31.7064L5.59725 33.8811C5.4984 33.9306 5.44897 33.98 5.35012 33.98C4.7076 34.2271 4.16392 33.98 3.91679 33.8811C3.66966 33.7329 3.07656 33.288 3.07656 32.3984V4.32482C3.07656 3.73172 3.37311 3.33632 3.62024 3.08919C3.71909 2.99034 3.86737 2.89149 3.91679 2.84207C3.96622 2.84207 4.01564 2.79264 4.06507 2.79264C4.06507 2.79264 4.06507 2.79264 4.11449 2.79264C4.16392 2.79264 4.21334 2.74322 4.26277 2.74322H4.31219C4.36162 2.74322 4.41104 2.69379 4.46047 2.69379H4.50989C4.55932 2.69379 4.65817 2.69379 4.7076 2.69379H4.75702C4.80645 2.69379 4.80645 2.69379 4.85587 2.69379C4.9053 2.69379 4.95472 2.69379 5.00415 2.69379C5.05357 2.69379 5.05357 2.69379 5.103 2.69379C5.15242 2.69379 5.20185 2.74322 5.25127 2.74322C5.3007 2.74322 5.3007 2.74322 5.35012 2.79264C5.44897 2.84207 5.4984 2.84207 5.59725 2.89149C5.59725 2.89149 5.59725 2.89149 5.64668 2.89149C6.04208 3.13862 6.48691 3.43517 6.88231 3.73172C6.98116 3.83057 7.08001 3.92942 7.22828 3.97885C7.42599 4.17655 7.62369 4.32482 7.77196 4.52253C8.21679 4.96735 8.61219 5.41218 8.95817 5.95586C9.55127 6.79609 9.9961 7.73517 10.2927 8.72368C10.3421 8.9708 10.4409 9.1685 10.4904 9.41563C10.6881 10.2064 10.7869 11.0467 10.7869 11.8375V30.2237ZM33.2754 18.8559C32.88 18.9053 32.534 19.0041 32.2375 19.103C32.188 19.103 32.1386 19.1524 32.0892 19.1524C31.7432 19.2513 31.4467 19.3501 31.1007 19.449C31.0513 19.449 31.0018 19.4984 30.9524 19.4984C30.6064 19.5972 30.3099 19.7455 29.9639 19.8938C29.9145 19.8938 29.8651 19.9432 29.8651 19.9432C29.5191 20.0915 29.2225 20.2892 28.8766 20.4375L13.9007 29.0869V11.8375C13.9007 10.4536 13.703 9.06965 13.2582 7.78459C13.2087 7.58689 13.1099 7.38919 13.0605 7.19149L15.3835 8.52597L33.2754 18.8559Z" fill="url(#paint0_linear)"/>
<defs>
<linearGradient id="paint0_linear" x1="-1.9364" y1="4.23403" x2="32.5823" y2="38.7527" gradientUnits="userSpaceOnUse">
<stop stop-color="#2F80ED"/>
<stop offset="1" stop-color="#9B51E0"/>
</linearGradient>
</defs>
</svg>
