<svg width="172" height="44" viewBox="0 0 172 44" fill="none" xmlns="http://www.w3.org/2000/svg">
<g clip-path="url(#clip0)">
<path d="M64.8582 12.999C62.634 12.999 60.7559 13.7898 59.1743 15.3714C57.5927 16.953 56.8018 18.8806 56.8018 21.1048V37.0197H60.2122V27.6289C61.5961 28.6668 63.1777 29.1611 64.8582 29.1611C67.0823 29.1611 69.0099 28.3703 70.5915 26.7887C72.1731 25.2071 72.9639 23.2795 72.9639 21.1048C72.9639 18.8806 72.1731 16.953 70.5915 15.3714C69.0099 13.7898 67.0823 12.999 64.8582 12.999ZM68.1697 24.3668C67.2306 25.2565 66.1432 25.7507 64.8582 25.7507C63.5731 25.7507 62.4858 25.3059 61.5467 24.3668C60.657 23.4772 60.1628 22.3404 60.1628 21.0553C60.1628 19.7703 60.6076 18.6829 61.5467 17.7439C62.4363 16.8542 63.5731 16.3599 64.8582 16.3599C66.1432 16.3599 67.2306 16.8048 68.1697 17.7439C69.0593 18.6829 69.5536 19.7703 69.5536 21.0553C69.5041 22.3898 69.0593 23.4772 68.1697 24.3668Z" fill="#4D4D4D"/>
<path d="M80.0317 5.93115H76.6214V28.9633H80.0317V5.93115Z" fill="#4D4D4D"/>
<path d="M91.9432 12.8013C89.7191 12.8013 87.8409 13.5921 86.2593 15.1737C84.6777 16.7553 83.8869 18.6829 83.8869 20.907C83.8869 23.1312 84.6777 25.0093 86.2593 26.5909C87.8409 28.1725 89.7685 28.9633 91.9432 28.9633C93.6731 28.9633 95.2053 28.4691 96.6386 27.4312V28.9139H100.049V20.907C100.049 18.6829 99.2581 16.7553 97.6765 15.1737C96.0949 13.5921 94.1673 12.8013 91.9432 12.8013ZM95.2547 24.1691C94.3156 25.0587 93.2283 25.553 91.9432 25.553C90.6581 25.553 89.5708 25.1082 88.6317 24.1691C87.742 23.2794 87.2478 22.1426 87.2478 20.8576C87.2478 19.5725 87.6926 18.4852 88.6317 17.5461C89.5214 16.6564 90.6581 16.1622 91.9432 16.1622C93.2283 16.1622 94.3156 16.607 95.2547 17.5461C96.1443 18.4852 96.6386 19.5725 96.6386 20.8576C96.5892 22.1921 96.1443 23.2794 95.2547 24.1691Z" fill="#4D4D4D"/>
<path d="M116.112 21.1048C116.112 22.3898 115.667 23.5266 114.827 24.4163C113.937 25.3059 112.9 25.7507 111.614 25.7507C110.329 25.7507 109.292 25.3059 108.402 24.4163C107.562 23.5266 107.117 22.4393 107.117 21.1048V12.999H103.706V21.1048C103.706 23.3289 104.448 25.2565 105.98 26.7887C107.512 28.3703 109.39 29.1611 111.614 29.1611C113.246 29.1611 114.728 28.6668 116.112 27.7278V28.914C116.112 30.199 115.667 31.3358 114.728 32.2255C113.839 33.1151 112.702 33.6094 111.417 33.6094H111.17V37.0197H111.417C113.641 37.0197 115.569 36.2289 117.101 34.6473C118.682 33.0657 119.473 31.1381 119.473 28.9634V12.999H116.063V21.1048H116.112Z" fill="#4D4D4D"/>
<path d="M137.958 12.7024H132.67L127.035 17.5461V5.93115H123.625V28.9633H127.035V24.1197L132.67 28.9633H137.958L129.358 21.6484L128.37 20.8576L129.358 20.0174L137.958 12.7024Z" fill="#4D4D4D"/>
<path d="M162.572 20.8576L163.511 20.0174L172.16 12.7024H166.872L161.188 17.5461V5.93115H157.778V28.9633H161.188V24.1197L166.872 28.9633H172.16L163.511 21.6484L162.572 20.8576Z" fill="#4D4D4D"/>
<path d="M146.41 12.8013C144.186 12.8013 142.308 13.5921 140.726 15.1737C139.144 16.7553 138.354 18.6829 138.354 20.907C138.354 23.1312 139.144 25.0093 140.726 26.5909C142.308 28.1725 144.235 28.9633 146.41 28.9633C148.634 28.9633 150.562 28.1725 152.143 26.5909C153.725 25.0093 154.516 23.0817 154.516 20.907C154.516 18.6829 153.725 16.7553 152.143 15.1737C150.562 13.5921 148.634 12.8013 146.41 12.8013ZM149.721 24.1691C148.832 25.0587 147.695 25.553 146.41 25.553C145.125 25.553 144.037 25.1082 143.098 24.1691C142.209 23.2794 141.714 22.1426 141.714 20.8576C141.714 19.5725 142.159 18.4852 143.098 17.5461C143.988 16.6564 145.125 16.1622 146.41 16.1622C147.695 16.1622 148.782 16.607 149.721 17.5461C150.66 18.4852 151.105 19.5725 151.105 20.8576C151.105 22.1921 150.611 23.2794 149.721 24.1691Z" fill="#4D4D4D"/>
<path d="M44.2973 22.6616C44.2973 22.6122 44.2478 22.6122 44.2478 22.5628C44.149 22.3651 44.0501 22.2168 43.9513 22.0191C43.9019 21.9697 43.9019 21.9202 43.8524 21.8708C43.7042 21.6731 43.5559 21.4754 43.3582 21.2777C43.111 21.0306 42.8639 20.8329 42.5674 20.6352C42.4685 20.5857 42.3697 20.4869 42.3202 20.4375L13.9996 4.12712L7.17887 0.173101C5.69611 -0.716554 3.86737 -0.716554 2.38461 0.173101C2.18691 0.271951 1.98921 0.420227 1.84094 0.519078C0.65473 1.40873 -0.0372238 2.79264 -0.0372238 4.32482V32.3984C-0.0372238 34.1283 0.852431 35.7099 2.38461 36.5501C3.66967 37.2915 5.10301 37.3903 6.43749 36.8961C6.68461 36.7972 6.93174 36.6984 7.17887 36.5501L10.1444 34.8202L10.7869 34.4743V38.6754C10.7869 40.1582 11.4294 41.5421 12.6156 42.4317C13.0605 42.7777 13.5547 43.0742 14.0984 43.2225C14.5927 43.3708 15.1363 43.4697 15.6306 43.4697C15.9766 43.4697 16.3225 43.4202 16.7179 43.3708C16.9651 43.3214 17.1628 43.2225 17.4099 43.1731C17.657 43.0742 17.8547 42.9754 18.0524 42.8765L35.0053 33.0903L42.3202 28.8398C42.4685 28.7409 42.5674 28.6421 42.7156 28.5926C42.7651 28.5432 42.8145 28.5432 42.8639 28.4938C43.0122 28.3949 43.1605 28.2467 43.2593 28.1478C43.3088 28.0984 43.3087 28.0984 43.3582 28.049C43.4076 27.9995 43.5065 27.9007 43.5559 27.8018C43.6053 27.7524 43.6547 27.703 43.7042 27.6041C43.7536 27.5547 43.803 27.5053 43.8524 27.4064C43.9019 27.357 43.9019 27.3076 43.9513 27.2582C44.0501 27.0605 44.149 26.9122 44.2478 26.7145C44.2973 26.6651 44.2973 26.5662 44.3467 26.5168C44.8409 25.2317 44.8409 23.8972 44.2973 22.6616ZM41.3317 25.5283C41.2329 25.6271 41.1835 25.726 41.134 25.7754C41.0352 25.8743 40.8869 25.9731 40.7386 26.072L34.7582 29.5317L16.4708 40.1087C16.372 40.1582 16.3225 40.2076 16.2237 40.2076C16.1248 40.257 16.0754 40.257 15.9766 40.3064C15.7789 40.3559 15.5317 40.3559 15.334 40.3064C15.0375 40.257 14.7904 40.1582 14.5432 39.9605C14.2961 39.7628 13.9007 39.3673 13.9007 38.626V34.9191V32.6455L30.4088 23.1064C32.7812 21.7225 35.5984 21.3765 38.2674 22.0685C38.7122 22.1674 39.1076 22.3156 39.5524 22.5133C39.9478 22.6616 40.3927 22.8593 40.7881 23.1064C40.9363 23.2053 41.0352 23.3041 41.1835 23.403C41.2329 23.4524 41.2823 23.5513 41.3317 23.6007V23.6501C41.3317 23.6501 41.3317 23.6995 41.3812 23.6995C41.4306 23.749 41.4306 23.7984 41.4306 23.8478C41.6283 24.2926 41.6283 24.8363 41.4306 25.3306C41.3812 25.4294 41.3812 25.4788 41.3317 25.5283ZM10.7869 30.2237V30.8662L9.35358 31.7064L5.59726 33.8811C5.49841 33.9306 5.44898 33.98 5.35013 33.98C4.7076 34.2271 4.16393 33.98 3.9168 33.8811C3.66967 33.7329 3.07657 33.288 3.07657 32.3984V4.32482C3.07657 3.73172 3.37312 3.33632 3.62025 3.08919C3.7191 2.99034 3.86737 2.89149 3.9168 2.84207C3.96622 2.84207 4.01565 2.79264 4.06507 2.79264C4.06507 2.79264 4.06507 2.79264 4.1145 2.79264C4.16393 2.79264 4.21335 2.74322 4.26278 2.74322H4.3122C4.36163 2.74322 4.41105 2.69379 4.46048 2.69379H4.5099C4.55933 2.69379 4.65818 2.69379 4.7076 2.69379H4.75703C4.80645 2.69379 4.80645 2.69379 4.85588 2.69379C4.9053 2.69379 4.95473 2.69379 5.00416 2.69379C5.05358 2.69379 5.05358 2.69379 5.10301 2.69379C5.15243 2.69379 5.20186 2.74322 5.25128 2.74322C5.30071 2.74322 5.30071 2.74322 5.35013 2.79264C5.44898 2.84207 5.49841 2.84207 5.59726 2.89149C5.59726 2.89149 5.59726 2.89149 5.64668 2.89149C6.04209 3.13862 6.48691 3.43517 6.88232 3.73172C6.98117 3.83057 7.08002 3.92942 7.22829 3.97885C7.42599 4.17655 7.6237 4.32482 7.77197 4.52253C8.2168 4.96735 8.6122 5.41218 8.95818 5.95586C9.55128 6.79609 9.99611 7.73517 10.2927 8.72368C10.3421 8.9708 10.4409 9.1685 10.4904 9.41563C10.6881 10.2064 10.7869 11.0467 10.7869 11.8375V30.2237ZM33.2754 18.8559C32.88 18.9053 32.534 19.0041 32.2375 19.103C32.1881 19.103 32.1386 19.1524 32.0892 19.1524C31.7432 19.2513 31.4467 19.3501 31.1007 19.449C31.0513 19.449 31.0019 19.4984 30.9524 19.4984C30.6065 19.5972 30.3099 19.7455 29.9639 19.8938C29.9145 19.8938 29.8651 19.9432 29.8651 19.9432C29.5191 20.0915 29.2225 20.2892 28.8766 20.4375L13.9007 29.0869V11.8375C13.9007 10.4536 13.703 9.06965 13.2582 7.78459C13.2088 7.58689 13.1099 7.38919 13.0605 7.19149L15.3835 8.52597L33.2754 18.8559Z" fill="url(#paint0_linear)"/>
</g>
<defs>
<linearGradient id="paint0_linear" x1="-1.93639" y1="4.23403" x2="32.5823" y2="38.7527" gradientUnits="userSpaceOnUse">
<stop stop-color="#2F80ED"/>
<stop offset="1" stop-color="#9B51E0"/>
</linearGradient>
<clipPath id="clip0">
<rect width="172" height="43.9885" fill="white"/>
</clipPath>
</defs>
</svg>
